<?xml version="1.0" encoding="UTF-8"?>
<svg id="Layer_1" data-name="Layer 1" xmlns="http://www.w3.org/2000/svg" version="1.1" viewBox="0 0 200.44 195.44">
  <defs>
    <style>
      .cls-1 {
        fill: #ed6bcc;
      }

      .cls-1, .cls-2, .cls-3, .cls-4, .cls-5, .cls-6, .cls-7, .cls-8, .cls-9, .cls-10 {
        stroke: #010101;
        stroke-miterlimit: 10;
        stroke-width: .5px;
      }

      .cls-2 {
        fill: #3bd1ca;
      }

      .cls-3 {
        fill: #ef9021;
      }

      .cls-4, .cls-11, .cls-12 {
        fill: #efc41c;
      }

      .cls-11, .cls-13, .cls-14, .cls-15 {
        stroke-width: 0px;
      }

      .cls-5 {
        fill: #3c8b53;
      }

      .cls-16, .cls-12, .cls-17, .cls-18, .cls-19 {
        font-family: Arial-BoldMT, Arial;
        font-weight: 700;
      }

      .cls-16, .cls-14, .cls-20 {
        fill: #000;
      }

      .cls-16, .cls-17, .cls-19 {
        font-size: 6.12px;
      }

      .cls-6 {
        fill: #965ba5;
      }

      .cls-7 {
        fill: #194c61;
      }

      .cls-12, .cls-18 {
        font-size: 4px;
      }

      .cls-13, .cls-8, .cls-18 {
        fill: #2c96c0;
      }

      .cls-20 {
        stroke: #fff;
        stroke-width: 2px;
      }

      .cls-15 {
        fill: #010101;
      }

      .cls-9, .cls-19 {
        fill: #4fba6f;
      }

      .cls-17 {
        fill: #fff;
      }

      .cls-10 {
        fill: #f15c5a;
      }
    </style>
  </defs>
  <rect class="cls-1" x="175.9" y="56.75" width="21.06" height="56.18"/>
  <rect class="cls-1" x="176.97" y="55.72" width="21.06" height="56.18"/>
  <rect class="cls-2" x="93.03" y="2.9" width="46.01" height="21.03"/>
  <rect class="cls-2" x="93.99" y="1.86" width="46.01" height="21.03"/>
  <g id="obs">
    <rect class="cls-4" x="148.02" y="55.04" width="24.97" height="55.86"/>
  </g>
  <g id="obsp">
    <rect class="cls-10" x=".86" y="57.39" width="55.89" height="55.86"/>
    <rect class="cls-10" x="2.04" y="56.2" width="55.89" height="55.86"/>
    <rect class="cls-10" x="3.23" y="55.01" width="55.89" height="55.86"/>
  </g>
  <g id="varp">
    <rect class="cls-6" x="92.71" y="148.18" width="46.01" height="46.08"/>
    <rect class="cls-6" x="93.89" y="146.99" width="46.01" height="46.08"/>
    <rect class="cls-6" x="95.08" y="145.81" width="46.01" height="46.08"/>
  </g>
  <g id="Varm">
    <rect class="cls-7" x="92.71" y="122.64" width="46.01" height="21.03"/>
    <rect class="cls-7" x="93.89" y="121.45" width="46.01" height="21.03"/>
    <rect class="cls-7" x="95.08" y="120.27" width="46.01" height="21.03"/>
  </g>
  <g id="Obsm">
    <rect class="cls-3" x="62.42" y="57.29" width="24.97" height="55.86"/>
    <rect class="cls-3" x="63.6" y="56.1" width="24.97" height="55.86"/>
    <rect class="cls-3" x="64.79" y="54.94" width="24.97" height="55.86"/>
  </g>
  <g id="Layers">
    <rect class="cls-5" x="92.71" y="57.33" width="46.01" height="55.86"/>
    <rect class="cls-5" x="93.89" y="56.15" width="46.01" height="55.86"/>
    <rect class="cls-9" x="95.08" y="55.01" width="46.01" height="55.86"/>
    <text/>
    <path class="cls-14" d="M118.94,4.03h.75l-1,1.96,1.13,2.06h-.81l-.74-1.38-.72,1.38h-.79l1.08-2.05-1.07-1.97h.79l.7,1.32.68-1.32Z"/>
  </g>
  <rect class="cls-8" x="95.08" y="26.42" width="46.01" height="21.03"/>
  <g id="Uns">
    <path id="uns-braces-left" class="cls-20" d="M21.81,163.33c0-.18,0-.43.02-.73.01-.3.02-.62.03-.95.01-.33.02-.66.03-.98.01-.32.02-.59.02-.82.01-.48-.04-.97-.14-1.44-.07-.32-.2-.63-.39-.9-.16-.22-.39-.38-.64-.47-.28-.09-.57-.14-.87-.14h-1.48v-3.12h1.44c.61.05,1.21-.2,1.61-.66.41-.64.6-1.4.53-2.15,0-.14,0-.34,0-.61,0-.27-.01-.55-.03-.84-.01-.29-.02-.56-.03-.82,0-.25,0-.42,0-.51-.13-1.75.48-3.46,1.68-4.74,1.12-1.06,2.8-1.6,5.03-1.6h2.85v3.17h-3.45c-.64-.05-1.26.21-1.67.7-.4.63-.59,1.37-.54,2.11,0,.16,0,.37,0,.63,0,.26.01.52.03.8.01.27.02.53.03.77,0,.24,0,.42,0,.53.02.97-.21,1.92-.66,2.78-.43.8-1.06,1.48-1.83,1.97.36.24.69.52.97.85.3.35.56.74.76,1.15.22.45.39.92.51,1.41.12.53.18,1.08.18,1.62,0,.13,0,.35,0,.66,0,.32-.01.64-.03.96-.01.33-.02.62-.03.89,0,.27,0,.43,0,.47-.09.93.18,1.86.76,2.6.68.6,1.58.88,2.49.8h2.45v3.11h-1.97c-.24,0-.6-.01-1.07-.04-.48-.03-.98-.09-1.53-.17-.54-.09-1.08-.21-1.6-.36-.47-.13-.91-.34-1.3-.63-.73-.56-1.29-1.32-1.61-2.19-.37-1-.55-2.05-.53-3.12Z"/>
    <path id="uns-braces-left-2" data-name="uns-braces-left" class="cls-15" d="M21.81,163.33c0-.18,0-.43.02-.73.01-.3.02-.62.03-.95.01-.33.02-.66.03-.98.01-.32.02-.59.02-.82.01-.48-.04-.97-.14-1.44-.07-.32-.2-.63-.39-.9-.16-.22-.39-.38-.64-.47-.28-.09-.57-.14-.87-.14h-1.48v-3.12h1.44c.61.05,1.21-.2,1.61-.66.41-.64.6-1.4.53-2.15,0-.14,0-.34,0-.61,0-.27-.01-.55-.03-.84-.01-.29-.02-.56-.03-.82,0-.25,0-.42,0-.51-.13-1.75.48-3.46,1.68-4.74,1.12-1.06,2.8-1.6,5.03-1.6h2.85v3.17h-3.45c-.64-.05-1.26.21-1.67.7-.4.63-.59,1.37-.54,2.11,0,.16,0,.37,0,.63,0,.26.01.52.03.8.01.27.02.53.03.77,0,.24,0,.42,0,.53.02.97-.21,1.92-.66,2.78-.43.8-1.06,1.48-1.83,1.97.36.24.69.52.97.85.3.35.56.74.76,1.15.22.45.39.92.51,1.41.12.53.18,1.08.18,1.62,0,.13,0,.35,0,.66,0,.32-.01.64-.03.96-.01.33-.02.62-.03.89,0,.27,0,.43,0,.47-.09.93.18,1.86.76,2.6.68.6,1.58.88,2.49.8h2.45v3.11h-1.97c-.24,0-.6-.01-1.07-.04-.48-.03-.98-.09-1.53-.17-.54-.09-1.08-.21-1.6-.36-.47-.13-.91-.34-1.3-.63-.73-.56-1.29-1.32-1.61-2.19-.37-1-.55-2.05-.53-3.12Z"/>
    <path id="uns-braces-dots" class="cls-20" d="M34.56,162.34c0-.32.06-.64.18-.93.12-.29.29-.54.51-.76.23-.21.49-.39.78-.51.32-.13.65-.19,1-.19.34,0,.68.06,1,.19.29.12.56.29.79.51.69.69.89,1.73.51,2.63-.12.28-.3.54-.51.76-.23.22-.49.4-.79.52-.32.13-.65.19-1,.19-.34,0-.68-.06-1-.19-.29-.12-.56-.3-.78-.52-.22-.22-.4-.48-.51-.76-.12-.3-.18-.61-.18-.94ZM40.4,162.34c0-.32.06-.64.18-.93.12-.29.29-.54.51-.76.23-.21.49-.39.78-.51.32-.13.65-.19,1-.19.34,0,.68.06,1,.19.29.12.56.29.79.51.69.69.89,1.73.51,2.63-.12.28-.3.54-.51.76-.23.22-.49.4-.79.52-.32.13-.65.19-1,.19-.34,0-.68-.06-1-.19-.29-.12-.56-.3-.78-.52-.22-.22-.4-.48-.51-.76-.12-.3-.18-.62-.18-.94h0ZM46.2,162.34c0-.32.06-.64.18-.93.11-.28.29-.54.51-.76.23-.22.49-.39.78-.51.31-.13.65-.19.99-.19.34,0,.68.06,1,.19.3.12.57.29.8.51.22.21.4.47.52.76.39.9.18,1.95-.52,2.63-.23.22-.5.4-.8.52-.32.13-.65.19-1,.19-.34,0-.67-.06-.99-.19-.29-.12-.56-.29-.78-.52-.22-.22-.39-.48-.51-.76-.12-.3-.18-.62-.18-.94Z"/>
    <path id="uns-braces-dots-2" data-name="uns-braces-dots" class="cls-15" d="M34.56,162.34c0-.32.06-.64.18-.93.12-.29.29-.54.51-.76.23-.21.49-.39.78-.51.32-.13.65-.19,1-.19.34,0,.68.06,1,.19.29.12.56.29.79.51.69.69.89,1.73.51,2.63-.12.28-.3.54-.51.76-.23.22-.49.4-.79.52-.32.13-.65.19-1,.19-.34,0-.68-.06-1-.19-.29-.12-.56-.3-.78-.52-.22-.22-.4-.48-.51-.76-.12-.3-.18-.61-.18-.94ZM40.4,162.34c0-.32.06-.64.18-.93.12-.29.29-.54.51-.76.23-.21.49-.39.78-.51.32-.13.65-.19,1-.19.34,0,.68.06,1,.19.29.12.56.29.79.51.69.69.89,1.73.51,2.63-.12.28-.3.54-.51.76-.23.22-.49.4-.79.52-.32.13-.65.19-1,.19-.34,0-.68-.06-1-.19-.29-.12-.56-.3-.78-.52-.22-.22-.4-.48-.51-.76-.12-.3-.18-.62-.18-.94h0ZM46.2,162.34c0-.32.06-.64.18-.93.11-.28.29-.54.51-.76.23-.22.49-.39.78-.51.31-.13.65-.19.99-.19.34,0,.68.06,1,.19.3.12.57.29.8.51.22.21.4.47.52.76.39.9.18,1.95-.52,2.63-.23.22-.5.4-.8.52-.32.13-.65.19-1,.19-.34,0-.67-.06-.99-.19-.29-.12-.56-.29-.78-.52-.22-.22-.39-.48-.51-.76-.12-.3-.18-.62-.18-.94Z"/>
    <path id="uns-braces-right" class="cls-20" d="M64.58,163.33c.02,1.06-.16,2.12-.53,3.12-.32.87-.88,1.62-1.61,2.19-.39.29-.83.5-1.3.63-.53.15-1.06.28-1.61.36-.54.09-1.05.14-1.53.17-.48.03-.83.04-1.07.04h-1.97v-3.11h2.45c.9.09,1.8-.2,2.49-.8.57-.74.84-1.67.76-2.6,0-.05,0-.2,0-.47,0-.27-.01-.57-.03-.89-.01-.33-.02-.65-.03-.96,0-.31,0-.53,0-.66,0-.55.06-1.09.18-1.62.11-.49.28-.96.5-1.41.2-.42.46-.8.76-1.15.29-.33.61-.61.98-.85-.77-.49-1.4-1.17-1.83-1.97-.45-.86-.68-1.81-.66-2.78,0-.11,0-.29,0-.53,0-.24.01-.5.03-.77.01-.27.02-.54.03-.8,0-.26,0-.47,0-.63.05-.74-.14-1.48-.54-2.11-.41-.49-1.03-.75-1.67-.7h-3.45v-3.17h2.85c2.23,0,3.91.53,5.03,1.6,1.2,1.27,1.81,2.99,1.68,4.74,0,.09,0,.26,0,.51,0,.25-.01.52-.03.82-.01.29-.02.57-.03.84,0,.27,0,.47,0,.61-.06.76.12,1.51.53,2.15.4.46,1,.71,1.61.66h1.44v3.12h-1.48c-.3,0-.59.04-.88.14-.25.09-.47.26-.64.47-.19.27-.33.58-.39.9-.1.47-.15.96-.14,1.44,0,.23,0,.5.02.82.01.32.02.65.03.98s.02.65.03.95c.01.3.02.55.02.73Z"/>
    <path id="uns-braces-right-2" data-name="uns-braces-right" class="cls-15" d="M64.58,163.33c.02,1.06-.16,2.12-.53,3.12-.32.87-.88,1.62-1.61,2.19-.39.29-.83.5-1.3.63-.53.15-1.06.28-1.61.36-.54.09-1.05.14-1.53.17-.48.03-.83.04-1.07.04h-1.97v-3.11h2.45c.9.09,1.8-.2,2.49-.8.57-.74.84-1.67.76-2.6,0-.05,0-.2,0-.47,0-.27-.01-.57-.03-.89-.01-.33-.02-.65-.03-.96,0-.31,0-.53,0-.66,0-.55.06-1.09.18-1.62.11-.49.28-.96.5-1.41.2-.42.46-.8.76-1.15.29-.33.61-.61.98-.85-.77-.49-1.4-1.17-1.83-1.97-.45-.86-.68-1.81-.66-2.78,0-.11,0-.29,0-.53,0-.24.01-.5.03-.77.01-.27.02-.54.03-.8,0-.26,0-.47,0-.63.05-.74-.14-1.48-.54-2.11-.41-.49-1.03-.75-1.67-.7h-3.45v-3.17h2.85c2.23,0,3.91.53,5.03,1.6,1.2,1.27,1.81,2.99,1.68,4.74,0,.09,0,.26,0,.51,0,.25-.01.52-.03.82-.01.29-.02.57-.03.84,0,.27,0,.47,0,.61-.06.76.12,1.51.53,2.15.4.46,1,.71,1.61.66h1.44v3.12h-1.48c-.3,0-.59.04-.88.14-.25.09-.47.26-.64.47-.19.27-.33.58-.39.9-.1.47-.15.96-.14,1.44,0,.23,0,.5.02.82.01.32.02.65.03.98s.02.65.03.95c.01.3.02.55.02.73Z"/>
    <path id="uns-name-u" class="cls-20" d="M41.01,141.63v2.65c0,.06.01.12.03.17.01.06.03.12.04.19h-.7s-.04-.05-.05-.08c0-.03-.01-.07-.01-.1v-.1c-.05.07-.1.12-.16.17-.06.05-.13.09-.2.13-.07.04-.15.06-.22.08-.07.02-.15.03-.22.03-.14,0-.29-.02-.42-.07-.12-.04-.23-.12-.32-.22-.09-.11-.16-.25-.2-.39-.05-.19-.07-.38-.07-.58v-1.89s.71,0,.71,0v1.89c0,.18.03.35.12.51.07.1.19.16.31.16.09,0,.17-.02.25-.06.08-.04.15-.09.2-.15.06-.07.11-.15.14-.24.03-.1.05-.2.05-.3v-1.81s.72,0,.72,0Z"/>
    <path id="uns-name-n" class="cls-20" d="M41.79,144.64v-3.01s.72,0,.72,0v.31c.1-.11.23-.21.37-.27.13-.07.28-.1.42-.1.14,0,.28.02.41.07.12.04.23.12.32.22.1.11.16.25.2.39.05.19.08.38.07.58v1.83s-.71,0-.71,0v-1.82c0-.1-.01-.2-.04-.3-.02-.07-.05-.14-.09-.21-.03-.05-.08-.09-.14-.12-.06-.03-.12-.04-.18-.04-.09,0-.17.02-.25.05-.08.04-.15.09-.2.15-.06.07-.11.15-.14.24-.03.1-.05.2-.05.3v1.74s-.72,0-.72,0Z"/>
    <path id="uns-name-s" class="cls-20" d="M47.15,142.59s-.03,0-.04-.01c0,0-.02-.02-.02-.03,0-.01-.01-.03-.01-.04,0-.01,0-.03-.02-.04-.04-.05-.09-.09-.14-.13-.06-.04-.12-.08-.19-.11-.07-.03-.14-.06-.22-.07-.07-.02-.15-.03-.23-.03-.06,0-.12,0-.19.01-.05,0-.11.02-.16.05-.04.02-.08.05-.11.08-.03.04-.04.08-.04.12,0,.05.01.1.04.14.04.04.08.08.13.1.07.03.14.06.21.09.09.03.19.06.31.09.29.06.56.2.79.39.16.14.25.33.26.54,0,.13-.03.27-.09.39-.06.12-.15.23-.26.32-.12.1-.26.17-.4.22-.17.06-.35.09-.53.08-.24,0-.48-.04-.71-.12-.23-.09-.43-.22-.61-.39l.37-.68s.05.02.06.05c.01.03.03.06.05.11.04.06.09.11.15.16.07.05.14.1.21.14.08.04.16.08.24.1.08.02.16.04.24.04.14,0,.27-.02.4-.07.09-.04.14-.13.14-.22,0-.05-.01-.09-.03-.13-.03-.04-.06-.08-.1-.11-.06-.04-.12-.07-.18-.09-.07-.03-.16-.06-.27-.09-.06-.02-.12-.03-.18-.05s-.12-.04-.17-.06c-.11-.04-.22-.09-.32-.15-.09-.05-.17-.11-.24-.19-.06-.07-.11-.15-.15-.23-.03-.09-.05-.19-.05-.29,0-.11.03-.22.09-.32.06-.11.15-.21.25-.29.11-.09.24-.16.38-.21.15-.06.32-.08.48-.08.22,0,.44.04.64.12.21.09.39.23.54.4l-.35.52Z"/>
  </g>
  <g id="var-names-horizontal">
    <rect class="cls-13" x="94.6" y="50.64" width="12.47" height="1"/>
    <rect class="cls-13" x="129.7" y="50.81" width="11.4" height=".78"/>
  </g>
  <rect class="cls-11" x="3.23" y="50.53" width="16.88" height="1.03"/>
  <g id="var-names-vertical">
    <rect class="cls-13" x="143.88" y="145.35" width=".97" height="12.75"/>
    <rect class="cls-13" x="143.77" y="180.72" width=".97" height="11.17"/>
  </g>
  <g id="obs-names-vertical">
    <rect class="cls-11" x="143.88" y="54.53" width=".97" height="16.03"/>
    <rect class="cls-11" x="143.72" y="94.98" width=".89" height="15.82"/>
  </g>
  <rect class="cls-11" x="43.77" y="50.79" width="15.27" height="1.03"/>
  <rect class="cls-2" x="94.97" y=".87" width="46.01" height="21.03"/>
  <text class="cls-17" transform="translate(111.88 6.24)"><tspan x="0" y="0">vart</tspan></text>
  <g>
    <rect class="cls-14" x="108.59" y="9.76" width="17.76" height=".51"/>
    <rect class="cls-14" x="121.5" y="13.37" width="9.51" height=".54"/>
    <rect class="cls-14" x="125.77" y="9.76" width=".58" height="3.88" transform="translate(-.02 .18) rotate(-.08)"/>
    <rect class="cls-14" x="108.59" y="9.76" width=".67" height="3.88" transform="translate(-.02 .18) rotate(-.09)"/>
    <rect class="cls-14" x="130.34" y="13.37" width=".67" height="3.69" transform="translate(-.02 .22) rotate(-.09)"/>
    <rect class="cls-14" x="117.34" y="8.38" width=".54" height="1.67" transform="translate(-.01 .17) rotate(-.08)"/>
    <rect class="cls-14" x="121.44" y="13.37" width=".66" height="7.37" transform="translate(-.03 .19) rotate(-.09)"/>
    <rect class="cls-14" x="125.93" y="16.8" width="7.76" height=".51"/>
    <rect class="cls-14" x="125.93" y="16.8" width=".67" height="3.94" transform="translate(-.03 .21) rotate(-.09)"/>
    <rect class="cls-14" x="133.05" y="16.8" width=".67" height="3.94" transform="translate(-.03 .22) rotate(-.09)"/>
    <rect class="cls-14" x="103.93" y="13.37" width="9.51" height=".54"/>
    <rect class="cls-14" x="112.77" y="13.37" width=".67" height="3.69" transform="translate(-.02 .19) rotate(-.09)"/>
    <rect class="cls-14" x="103.86" y="13.37" width=".67" height="3.69" transform="translate(-.02 .17) rotate(-.09)"/>
    <rect class="cls-14" x="99.28" y="16.8" width="7.76" height=".51"/>
    <rect class="cls-14" x="99.28" y="16.8" width=".67" height="3.94" transform="translate(-.03 .16) rotate(-.09)"/>
    <rect class="cls-14" x="106.39" y="16.8" width=".67" height="3.94" transform="translate(-.03 .17) rotate(-.09)"/>
    <rect class="cls-14" x="110.56" y="16.8" width="7.76" height=".51"/>
    <rect class="cls-14" x="110.57" y="16.8" width=".67" height="3.94" transform="translate(-.03 .18) rotate(-.09)"/>
    <rect class="cls-14" x="117.68" y="16.8" width=".67" height="3.94" transform="translate(-.03 .19) rotate(-.09)"/>
  </g>
  <rect class="cls-1" x="178.08" y="54.72" width="21.06" height="56.18"/>
  <text class="cls-17" transform="translate(181.97 60.82) rotate(.02)"><tspan x="0" y="0">obst</tspan></text>
  <g>
    <rect class="cls-14" x="191.95" y="76.16" width=".55" height="20.61"/>
    <rect class="cls-14" x="188.04" y="91.34" width=".58" height="10.93"/>
    <rect class="cls-14" x="188.04" y="96.08" width="4.45" height=".68"/>
    <rect class="cls-14" x="188.05" y="75.76" width="4.45" height=".79" transform="translate(-.09 .23) rotate(-.07)"/>
    <rect class="cls-14" x="184.39" y="101.48" width="4.23" height=".79" transform="translate(-.12 .22) rotate(-.07)"/>
    <rect class="cls-14" x="191.96" y="86.1" width="3.05" height=".64"/>
    <rect class="cls-14" x="180.72" y="90.95" width="7.91" height=".78" transform="translate(-.1 .2) rotate(-.06)"/>
    <rect class="cls-14" x="184.39" y="96.42" width=".55" height="9.02"/>
    <rect class="cls-14" x="180.71" y="96.26" width="4.23" height=".79" transform="translate(-.12 .22) rotate(-.07)"/>
    <rect class="cls-14" x="180.71" y="104.68" width="4.23" height=".79" transform="translate(-.13 .22) rotate(-.07)"/>
    <rect class="cls-14" x="188.05" y="70.56" width=".58" height="10.93"/>
    <rect class="cls-14" x="184.4" y="80.69" width="4.23" height=".79" transform="translate(-.1 .22) rotate(-.07)"/>
    <rect class="cls-14" x="184.41" y="70.16" width="4.23" height=".79" transform="translate(-.08 .22) rotate(-.07)"/>
    <rect class="cls-14" x="184.41" y="65.14" width=".55" height="8.78"/>
    <rect class="cls-14" x="180.73" y="64.75" width="4.23" height=".79" transform="translate(-.08 .22) rotate(-.07)"/>
    <rect class="cls-14" x="180.72" y="73.16" width="4.23" height=".79" transform="translate(-.09 .22) rotate(-.07)"/>
    <rect class="cls-14" x="184.4" y="78.49" width=".55" height="8.78"/>
    <rect class="cls-14" x="180.72" y="78.09" width="4.23" height=".79" transform="translate(-.09 .22) rotate(-.07)"/>
    <rect class="cls-14" x="180.72" y="86.5" width="4.23" height=".79" transform="translate(-.1 .22) rotate(-.07)"/>
  </g>
  <text class="cls-17" transform="translate(112.71 38.36)"><tspan x="0" y="0">var</tspan></text>
  <text class="cls-17" transform="translate(116.87 84.67)"><tspan x="0" y="0">X</tspan></text>
  <text class="cls-17" transform="translate(68.41 84.72)"><tspan x="0" y="0">obsm</tspan></text>
  <text class="cls-17" transform="translate(155.07 84.23)"><tspan x="0" y="0">obs</tspan></text>
  <text class="cls-17" transform="translate(22.42 84.29)"><tspan x="0" y="0">obsp</tspan></text>
  <text class="cls-17" transform="translate(109.48 132.2)"><tspan x="0" y="0">varm</tspan></text>
  <text class="cls-17" transform="translate(110.97 170.26)"><tspan x="0" y="0">varp</tspan></text>
  <text class="cls-19" transform="translate(92.71 118.72)"><tspan x="0" y="0">layers</tspan></text>
  <text class="cls-16" transform="translate(38 145.09)"><tspan x="0" y="0">uns</tspan></text>
  <text class="cls-12" transform="translate(21.31 52.01)"><tspan x="0" y="0">obs_names</tspan></text>
  <text class="cls-18" transform="translate(108.22 52.01)"><tspan x="0" y="0">var_names</tspan></text>
  <text class="cls-18" transform="translate(143.15 161.14) rotate(90.48)"><tspan x="0" y="0">var_names</tspan></text>
  <text class="cls-12" transform="translate(143.19 71.9) rotate(90.64)"><tspan x="0" y="0">obs_names</tspan></text>
</svg>
